# xmcd
#
# Track frame offsets:
#	150
#	14209
#	30480
#	45682
#	59557
#	73482
#	88720
#	101927
#	116754
#	133612
#	148990
#	163595
#
# Disc length: 2343 seconds
#
# Revision: 2
# Processed by: cddbd v1.5.2PL0 Copyright (c) Steve Scherf et al.
# Submitted via: EZCDAudioConverter 3.1.4.1
#
DISCID=be09250c
DTITLE=Lee Greenwood - Best Of
DYEAR=1900
DGENRE=Country
TTITLE0=I. O. U.
TTITLE1=Somebody's Gonna Love You
TTITLE2=Dixie Road
TTITLE3=Don't Underestimate My Love For You
TTITLE4=Hearts Aren't Make To Break (They're Made To Love)
TTITLE5=Going, Going Gone
TTITLE6=Touch and Go Crazy
TTITLE7=Mornin' Ride
TTITLE8=Fools Gold
TTITLE9=I Don't Mind The Thorns (If You're The Rose)
TTITLE10=God Bless The USA
TTITLE11=You'll Never Walk Alone
EXTD=
EXTT0=
EXTT1=
EXTT2=
EXTT3=
EXTT4=
EXTT5=
EXTT6=
EXTT7=
EXTT8=
EXTT9=
EXTT10=
EXTT11=
PLAYORDER=
